<?xml version="1.0" encoding="utf-8"?>
<!-- Generator: Adobe Illustrator 22.0.0, SVG Export Plug-In . SVG Version: 6.00 Build 0)  -->
<svg version="1.1" id="Layer_1" xmlns="http://www.w3.org/2000/svg" xmlns:xlink="http://www.w3.org/1999/xlink" x="0px" y="0px"
	 viewBox="0 0 25.9 18.1" style="enable-background:new 0 0 25.9 18.1;" xml:space="preserve">
<g>
	<path d="M17.1,18.1c-0.2,0-0.5-0.1-0.7-0.3c-0.4-0.4-0.4-1,0-1.4L23.5,9l-7.1-7.3c-0.4-0.4-0.4-1,0-1.4c0.4-0.4,1-0.4,1.4,0l7.8,8
		c0.4,0.4,0.4,1,0,1.4l-7.8,8C17.6,18,17.4,18.1,17.1,18.1z"/>
</g>
<g>
	<path d="M24.9,10H1c-0.6,0-1-0.4-1-1s0.4-1,1-1h23.9c0.6,0,1,0.4,1,1S25.4,10,24.9,10z"/>
</g>
</svg>
