<?xml version="1.0" encoding="utf-8"?>
<!-- Generator: Adobe Illustrator 22.0.0, SVG Export Plug-In . SVG Version: 6.00 Build 0)  -->
<svg version="1.1" id="Layer_1" xmlns="http://www.w3.org/2000/svg" xmlns:xlink="http://www.w3.org/1999/xlink" x="0px" y="0px"
	 viewBox="0 0 32 32" style="enable-background:new 0 0 32 32;" xml:space="preserve">
<g>
	<path d="M12,24c-3.2,0-6.2-1.2-8.5-3.5c-4.7-4.7-4.7-12.3,0-17C5.8,1.2,8.8,0,12,0s6.2,1.2,8.5,3.5c4.7,4.7,4.7,12.3,0,17
		C18.2,22.8,15.2,24,12,24z M12,2C9.3,2,6.8,3,4.9,4.9C1,8.8,1,15.2,4.9,19.1C6.8,21,9.3,22,12,22s5.2-1,7.1-2.9
		c3.9-3.9,3.9-10.3,0-14.2l0,0C17.2,3,14.6,2,12,2z"/>
</g>
<g>
	<path d="M31,32c-0.3,0-0.5-0.1-0.7-0.3l-11-11.1c-0.4-0.4-0.4-1,0-1.4c0.4-0.4,1-0.4,1.4,0l11,11.1c0.4,0.4,0.4,1,0,1.4
		C31.5,31.9,31.2,32,31,32z"/>
</g>
</svg>
