<?xml version="1.0" encoding="utf-8"?><svg xmlns="http://www.w3.org/2000/svg" xmlns:xlink="http://www.w3.org/1999/xlink"><defs><svg viewBox="0 0 17 32" id="arrow"><path d="M1 32c-.3 0-.5-.1-.7-.3-.4-.4-.4-1 0-1.4L14.6 16 .3 1.7C-.1 1.3-.1.7.3.3s1-.4 1.4 0l15 15c.4.4.4 1 0 1.4l-15 15c-.2.2-.4.3-.7.3z"/></svg><svg viewBox="0 0 32 25" id="cart"><path d="M25 16.3H6.5c-.3 0-.6-.2-.8-.4L.2 7.8C0 7.5-.1 7.1.1 6.7s.5-.5.9-.5h24c.6 0 1 .4 1 1v8.1c0 .5-.4 1-1 1zm-17.9-2H24V8.2H2.9l4.2 6.1z"/><path d="M23.8 20.5H9c-.6 0-1-.4-1-1s.4-1 1-1h13.8v-3c0-.6.4-1 1-1s1 .4 1 1v4c0 .3-.1.5-.3.7-.2.2-.4.3-.7.3zM25 8c-.6 0-1-.4-1-1V2.2c0-.5.3-.9.8-1l6-1.2c.5-.1 1.1.2 1.2.8.1.5-.2 1.1-.8 1.2L26 3v4c0 .6-.4 1-1 1z"/><path d="M8.9 25c-1.8 0-3.2-1.5-3.2-3.3s1.4-3.3 3.2-3.3c1.8 0 3.2 1.5 3.2 3.3S10.6 25 8.9 25zm0-4.5c-.7 0-1.2.6-1.2 1.3S8.2 23 8.9 23s1.2-.6 1.2-1.3-.6-1.2-1.2-1.2zM23 25c-1.8 0-3.2-1.5-3.2-3.3s1.4-3.3 3.2-3.3c1.8 0 3.2 1.5 3.2 3.3S24.7 25 23 25zm0-4.5c-.7 0-1.2.6-1.2 1.3S22.3 23 23 23s1.2-.6 1.2-1.3-.6-1.2-1.2-1.2z"/></svg><svg viewBox="0 0 25.9 18.1" id="fullarrow"><path d="M17.1 18.1c-.2 0-.5-.1-.7-.3-.4-.4-.4-1 0-1.4L23.5 9l-7.1-7.3c-.4-.4-.4-1 0-1.4.4-.4 1-.4 1.4 0l7.8 8c.4.4.4 1 0 1.4l-7.8 8c-.2.3-.4.4-.7.4z"/><path d="M24.9 10H1c-.6 0-1-.4-1-1s.4-1 1-1h23.9c.6 0 1 .4 1 1s-.5 1-1 1z"/></svg><svg viewBox="0 0 44.4 44.4" id="more"><path d="M33 23.3H10.1c-.6 0-1-.4-1-1s.4-1 1-1H33c.6 0 1 .4 1 1s-.5 1-1 1z"/><path d="M21.5 34.8c-.6 0-1-.4-1-1V10.9c0-.6.4-1 1-1s1 .4 1 1v22.9c0 .5-.4 1-1 1z"/><g><path d="M22.2 44.4c-5.7 0-11.4-2.2-15.7-6.5-8.7-8.7-8.7-22.7 0-31.4s22.7-8.7 31.4 0 8.7 22.7 0 31.4c-4.3 4.3-10 6.5-15.7 6.5zm0-42.4C17 2 11.8 4 7.9 7.9 0 15.8 0 28.6 7.9 36.5c7.9 7.9 20.7 7.9 28.6 0 7.9-7.9 7.9-20.7 0-28.6C32.5 4 27.4 2 22.2 2z"/></g></svg><svg viewBox="0 0 32 32" id="search"><path d="M12 24c-3.2 0-6.2-1.2-8.5-3.5-4.7-4.7-4.7-12.3 0-17C5.8 1.2 8.8 0 12 0s6.2 1.2 8.5 3.5c4.7 4.7 4.7 12.3 0 17-2.3 2.3-5.3 3.5-8.5 3.5zm0-22C9.3 2 6.8 3 4.9 4.9 1 8.8 1 15.2 4.9 19.1 6.8 21 9.3 22 12 22s5.2-1 7.1-2.9c3.9-3.9 3.9-10.3 0-14.2C17.2 3 14.6 2 12 2z"/><path d="M31 32c-.3 0-.5-.1-.7-.3l-11-11.1c-.4-.4-.4-1 0-1.4.4-.4 1-.4 1.4 0l11 11.1c.4.4.4 1 0 1.4-.2.2-.5.3-.7.3z"/></svg></defs></svg>