<?xml version="1.0" encoding="utf-8"?>
<!-- Generator: Adobe Illustrator 22.0.1, SVG Export Plug-In . SVG Version: 6.00 Build 0)  -->
<svg version="1.1" id="Layer_1" xmlns="http://www.w3.org/2000/svg" xmlns:xlink="http://www.w3.org/1999/xlink" x="0px" y="0px"
	 viewBox="0 0 372.3 31.2" style="enable-background:new 0 0 372.3 31.2;" xml:space="preserve">
<style type="text/css">
	.st0{fill:#003972;}
	.st1{fill:#FFDF51;}
	.st2{fill:#FFFFFF;}
</style>
<g>
	<path class="st0" d="M354.6,31.2H9.2C4.1,31.2,0,27,0,21.9V9.2C0,4.1,4.1,0,9.2,0h345.3c5.1,0,9.2,4.1,9.2,9.2v12.5h0.1v0.2
		C363.8,27,359.7,31.2,354.6,31.2z M9.2,0.5c-4.8,0-8.8,3.9-8.8,8.8v12.7c0,4.8,3.9,8.8,8.8,8.8h345.4c4.7,0,8.6-3.8,8.7-8.5h-0.1
		v-13c0-4.8-3.9-8.8-8.8-8.8H9.2z"/>
</g>
<g>
	<path class="st0" d="M361.1,22.7c0,3.2-2.6,6-5.8,6H163.7L178.6,3h176.7c3.2,0,5.8,2.4,5.8,5.6L361.1,22.7L361.1,22.7z"/>
</g>
<g>
	<path class="st1" d="M3,8.8C3,5.6,5.6,3,8.8,3h169.9l-16,25.7H8.8c-3.2,0-5.8-2.6-5.8-5.8V8.8z"/>
</g>
<g>
	<g>
		<path class="st0" d="M11.5,8.7l7.9-0.1l-3.2,17.2l-7.9,0.1L11.5,8.7z"/>
		<path class="st0" d="M8.1,26.1l0-0.2l3.2-17.3l8.2-0.1l0,0.2l-3.2,17.3l-0.1,0L8.1,26.1z M11.6,8.8L8.5,25.7l7.6-0.1l3.1-16.9
			L11.6,8.8z"/>
	</g>
	<g>
		<path class="st0" d="M23.4,8.6l9.1-0.1l4.3,9.4h0.1l1.7-9.4h7l-3.2,17.2l-9,0.1l-4.5-9.2h-0.1l-1.7,9.3h-7L23.4,8.6z"/>
		<path class="st0" d="M27.2,26.1h-7.3l0-0.2l3.3-17.4l9.3-0.1l4.2,9.2l1.7-9.2h7.3l0,0.2l-3.2,17.3l-0.1,0L33.3,26l0-0.1l-4.4-8.9
			L27.2,26.1z M20.3,25.8H27l1.7-9.3H29l4.5,9.2l8.8-0.1l3.1-16.9h-6.7L37,18.1h-0.3l-4.3-9.4l-8.9,0.1L20.3,25.8z"/>
	</g>
	<g>
		<path class="st0" d="M63.1,13.5c-1.3-0.5-2.9-0.8-4.4-0.8c-0.6,0-2.2,0.1-2.3,0.8c-0.3,1.5,6.5,3.4,5.8,7.2
			c-0.5,2.5-2.8,5.2-9.1,5.2c-1.6,0-4.2-0.3-6.2-0.5v-5.2c1.6,0.6,3.4,1,5.1,1c0.7,0,2.2,0,2.4-0.7c0.3-1.5-6.4-3.7-5.7-7.6
			c0.5-2.7,3.4-4.9,8.2-4.9c2.6,0,4.5,0.2,6.5,0.5L63.1,13.5z"/>
		<path class="st0" d="M53.1,26.1c-1.3,0-3.4-0.2-5.2-0.4l-1.2-0.1V20l0.2,0.1c1.2,0.5,3.1,1,5,1c0.6,0,2.1,0,2.3-0.6
			c0.1-0.5-0.8-1.1-1.9-1.9c-1.8-1.3-4.3-3.2-3.8-5.6c0.6-3.1,3.8-5,8.3-5c2.8,0,4.8,0.2,6.5,0.5l0.1,0l-0.3,5.3L63,13.6
			c-1.3-0.5-2.9-0.8-4.3-0.8c-1,0-2.1,0.2-2.2,0.7c-0.1,0.5,0.9,1.2,1.9,1.9c1.8,1.2,4.3,2.9,3.9,5.3C61.4,25.5,55.6,26.1,53.1,26.1
			z M47,25.3l0.9,0.1c1.8,0.2,3.8,0.4,5.1,0.4c6.9,0,8.6-3.2,9-5.1c0.4-2.2-1.9-3.8-3.7-5c-1.2-0.8-2.2-1.5-2.1-2.2
			c0.1-0.9,1.9-0.9,2.4-0.9c1.4,0,3,0.3,4.3,0.7l0.3-4.7c-1.9-0.3-3.8-0.5-6.3-0.5c-4.4,0-7.5,1.9-8.1,4.8c-0.4,2.3,1.9,4,3.7,5.4
			c1.2,0.9,2.1,1.6,2,2.2c-0.2,0.8-1.8,0.8-2.5,0.8c-1.9,0-3.7-0.5-5-0.9V25.3z"/>
	</g>
	<g>
		<path class="st0" d="M65.7,8.3L86,8.2l-0.8,4.5H79l-2.3,12.7l-7.9,0.1l2.3-12.7h-6.2L65.7,8.3z"/>
		<path class="st0" d="M68.6,25.7l0-0.2l2.3-12.5h-6.2l0.9-4.8l0.1,0L86.2,8l-0.9,4.8h-6.2l-2.3,12.7l-0.1,0L68.6,25.7z M65.1,12.6
			h6.2L69,25.3l7.6-0.1l2.3-12.7h6.2l0.7-4.2l-20,0.1L65.1,12.6z"/>
	</g>
	<g>
		<path class="st0" d="M80,25.4c4.3-5.6,8.6-11.5,12.7-17.2l9.4-0.1c1.7,5.7,3.5,11.4,5.5,17.1l-8.2,0.1l-1-4h-7.1l-2.5,4L80,25.4z
			 M97.5,17l-1-4.2h-0.1L93.8,17H97.5z"/>
		<path class="st0" d="M79.7,25.6l0.2-0.2c4.6-6,9.2-12.3,12.7-17.2l0-0.1l0.1,0l9.5-0.1l0,0.1c1.9,6.4,3.7,12,5.5,17.1l0.1,0.2
			l-8.5,0.1l-1-4h-6.9l-2.5,4L79.7,25.6z M92.8,8.3c-3.4,4.8-8,11-12.5,16.9l8.4-0.1l2.5-4h7.3l1,4l7.9-0.1
			c-1.8-5-3.5-10.5-5.4-16.8L92.8,8.3z M97.7,17.2h-4.2l2.8-4.5h0.3L97.7,17.2z M94.1,16.9h3.2l-0.9-3.8L94.1,16.9z"/>
	</g>
	<g>
		<path class="st0" d="M111.6,8.1l9.1-0.1l4.3,9.4h0.1l1.7-9.4h7l-3.2,17.2l-9,0.1l-4.5-9.2H117l-1.7,9.3h-7L111.6,8.1z"/>
		<path class="st0" d="M115.4,25.6h-7.3l0-0.2L111.5,8l9.3-0.1l4.2,9.2l1.7-9.2h7.3l0,0.2l-3.2,17.3l-0.1,0l-9.1,0.1l0-0.1l-4.4-8.9
			L115.4,25.6z M108.5,25.2h6.7l1.7-9.3h0.3l4.5,9.2l8.8-0.1l3.1-16.9h-6.7l-1.7,9.4h-0.3l-4.3-9.4l-8.9,0.1L108.5,25.2z"/>
	</g>
	<g>
		<path class="st0" d="M135.6,7.9l20.3-0.1l-0.8,4.5h-6.2L146.5,25l-7.9,0.1l2.3-12.7h-6.2L135.6,7.9z"/>
		<path class="st0" d="M138.4,25.3l0-0.2l2.3-12.5h-6.2l1-4.8l0.1,0l20.5-0.1l-0.9,4.8H149l-2.4,12.7l-0.1,0L138.4,25.3z
			 M134.9,12.2h6.2l-2.3,12.7l7.6-0.1l2.4-12.7h6.2l0.7-4.2l-20,0.1L134.9,12.2z"/>
	</g>
</g>
<g>
	<g>
		<path class="st1" d="M214.5,23.2c-1.5,0.1-3.9,0.3-4.6,0.3c-5.2,0-9.9-2.3-8.8-8.1c1.1-5.8,6.6-8.1,11.8-8.1
			c1.3,0,2.8,0.2,4.3,0.4l-0.3,4.4c-1.2-0.3-2.4-0.6-3.7-0.6c-3.7,0-5.4,2.4-5.6,3.9c-0.4,2.3,1.1,3.8,3.1,3.8
			c2.1,0,3.6-0.3,5.1-0.6L214.5,23.2z"/>
		<path class="st1" d="M209.9,23.7c-3.5,0-6.3-1-7.8-2.8c-1.2-1.4-1.5-3.2-1.1-5.4c1.2-6.1,6.9-8.2,11.9-8.2c1.3,0,2.8,0.2,4.3,0.4
			l0.1,0l-0.3,4.7l-0.2,0c-1.2-0.3-2.4-0.6-3.7-0.6c-3.6,0-5.3,2.3-5.5,3.8c-0.2,1,0,1.9,0.6,2.6c0.6,0.7,1.4,1,2.4,1
			c2.1,0,3.6-0.3,5.1-0.6l0.2,0l-1.4,4.9l-0.1,0c-0.5,0-1,0.1-1.6,0.1C211.7,23.6,210.4,23.7,209.9,23.7z M212.9,7.4
			c-4.9,0-10.5,2.1-11.7,8c-0.4,2.1,0,3.9,1.1,5.2c1.5,1.8,4.2,2.7,7.6,2.7c0.5,0,1.8-0.1,3-0.2c0.5,0,1-0.1,1.5-0.1l1.2-4.3
			c-1.4,0.3-2.9,0.6-4.9,0.6c-1.1,0-2-0.4-2.6-1.1c-0.6-0.7-0.8-1.7-0.7-2.9c0.2-1.6,2-4,5.7-4c1.3,0,2.4,0.3,3.6,0.6l0.3-4.1
			C215.6,7.6,214.1,7.4,212.9,7.4z"/>
	</g>
	<g>
		<path class="st1" d="M238.9,15.4c-1.1,5.7-6.6,8.1-11.8,8.1s-9.9-2.3-8.8-8.1c1.1-5.8,6.6-8.1,11.8-8.1
			C235.3,7.4,239.9,9.7,238.9,15.4z M224.7,15.4c-0.4,2.3,1.1,3.8,3.1,3.8s4.1-1.6,4.5-3.8c0.4-2.3-1.1-3.9-3.1-3.9
			C227.3,11.6,225.1,13.2,224.7,15.4z"/>
		<path class="st1" d="M227.1,23.7c-3.5,0-6.3-1-7.8-2.8c-1.2-1.4-1.5-3.2-1.1-5.4c1.2-6.1,6.9-8.2,11.9-8.2
			c3.5,0.1,6.3,1.1,7.8,2.9c1.1,1.4,1.5,3.2,1.2,5.4v0C237.9,21.5,231.9,23.7,227.1,23.7z M230.1,7.4c-4.9,0-10.5,2.1-11.6,8
			c-0.4,2.1,0,3.9,1.1,5.2c1.5,1.8,4.2,2.7,7.6,2.7c4.7,0,10.5-2.1,11.7-8c0.4-2.1,0-3.8-1.1-5.1C236.2,8.5,233.5,7.5,230.1,7.4z
			 M227.8,19.4c-1.1,0-2-0.4-2.6-1.1c-0.6-0.7-0.8-1.7-0.7-2.9v0c0.4-2.4,2.7-3.9,4.6-4c0,0,0,0,0,0c1,0,2,0.4,2.6,1.1
			c0.6,0.8,0.9,1.8,0.7,2.9C232.1,17.6,230,19.4,227.8,19.4z M224.8,15.4c-0.2,1,0,1.9,0.6,2.6c0.6,0.7,1.4,1,2.4,1
			c2,0,4-1.6,4.4-3.7c0.2-1,0-2-0.6-2.7c-0.6-0.7-1.4-1-2.3-1C227.4,11.7,225.2,13.3,224.8,15.4z"/>
	</g>
	<g>
		<path class="st1" d="M239.7,23.2l2.9-15.5h8.4l0.2,8.5l0,0l3.5-8.5h8.4l-2.9,15.5h-5.3l1.9-10.2l0,0l-4.3,10.2h-5.4L246.7,13l0,0
			l-1.9,10.2H239.7z"/>
		<path class="st1" d="M260.3,23.4h-5.6l1.7-9l-3.8,9H247l0-0.1l-0.3-8.9l-1.7,9h-5.4l3-15.8h8.7l0,0.1l0.2,7.8l3.3-7.9h8.7
			L260.3,23.4z M255.1,23h5l2.8-15.2h-8.1l-3.5,8.4l-0.3-0.1l-0.2-8.4h-8.1L239.9,23h4.8l1.9-10.1l0.3,0l0.4,10.1h5.2l4.3-10.1
			l0.3,0.1L255.1,23z"/>
	</g>
	<g>
		<path class="st1" d="M266.4,7.7h9.8c2.3,0,4.7,1.4,4,5.3c-0.5,2.9-3.3,4.9-6.9,4.9c-0.5,0-0.9,0-1.4-0.1l-0.5-3.6h0.7
			c0.9,0,1.7-0.3,1.9-1.2c0.2-1.2-0.5-1.3-1.3-1.3h-1.3l-2.1,11.6h-5.8L266.4,7.7z"/>
		<path class="st1" d="M269.4,23.5h-6.1l3-15.9h9.9c1.4,0,2.6,0.5,3.4,1.4c0.8,1,1.1,2.3,0.8,4.1c-0.5,3-3.4,5-7,5
			c-0.5,0-0.9,0-1.4-0.1l-0.1,0l-0.5-3.9h0.9c1,0,1.6-0.4,1.8-1.1c0.1-0.4,0-0.7-0.1-0.9c-0.2-0.2-0.5-0.3-1-0.3h-1.2L269.4,23.5z
			 M263.7,23.1h5.5l2.1-11.6h1.4c0.5,0,1,0,1.3,0.4c0.2,0.2,0.3,0.6,0.2,1.1c-0.2,0.9-0.9,1.3-2,1.3h-0.5l0.5,3.3
			c0.4,0.1,0.8,0.1,1.3,0.1c3.5,0,6.3-2,6.8-4.8c0.3-1.6,0.1-2.9-0.7-3.8c-0.9-1.1-2.4-1.3-3.2-1.3h-9.7L263.7,23.1z"/>
	</g>
	<g>
		<path class="st1" d="M281.4,7.7h16.7l-0.8,4.1h-5.1l-2.1,11.5h-6.5l2.1-11.5h-5.1L281.4,7.7z"/>
		<path class="st1" d="M290.2,23.5h-6.8l2.1-11.5h-5.1l0.9-4.4h17l-0.9,4.4h-5.1L290.2,23.5z M283.8,23.1h6.2l2.1-11.5h5.1l0.7-3.8
			h-16.4l-0.7,3.8h5.1L283.8,23.1z"/>
	</g>
	<g>
		<path class="st1" d="M292.9,23.2c3.7-5.1,7.3-10.4,10.7-15.5h7.7c1.3,5.2,2.7,10.4,4.2,15.5h-6.8l-0.8-3.6H302l-2.1,3.6H292.9z
			 M307.4,15.7l-0.7-3.8l0,0l-2.3,3.8H307.4z"/>
		<path class="st1" d="M315.7,23.4h-7.1l-0.8-3.6h-5.7l-2.1,3.6h-7.4l0.2-0.2c4-5.5,7.8-11.2,10.7-15.5l0-0.1h7.9l0,0.1
			c1.3,5.4,2.8,10.6,4.2,15.5L315.7,23.4z M308.8,23h6.5c-1.4-4.8-2.8-9.9-4.1-15.2h-7.5c-2.8,4.2-6.5,9.8-10.5,15.2h6.6l2.1-3.6
			h6.1L308.8,23z M307.6,15.9h-3.4l2.6-4.4L307.6,15.9z M304.7,15.6h2.6l-0.6-3.2L304.7,15.6z"/>
	</g>
	<g>
		<path class="st1" d="M319.1,7.7h7.4l3.4,8.5l0,0l1.6-8.5h5.7l-2.9,15.5h-7.4l-3.5-8.4l0,0l-1.5,8.4h-5.7L319.1,7.7z"/>
		<path class="st1" d="M334.4,23.4h-7.6l0-0.1l-3.3-7.9l-1.4,8h-6l3-15.8h7.6l0,0.1l3.2,8l1.5-8.1h6L334.4,23.4z M327,23h7.2
			L337,7.9h-5.4l-1.7,8.9l-3.6-8.9h-7.2L316.4,23h5.4l1.6-8.8L327,23z"/>
	</g>
	<g>
		<path class="st1" d="M338.8,7.7h16.7l-0.8,4.1h-5.1l-2.1,11.5H341l2.1-11.5H338L338.8,7.7z"/>
		<path class="st1" d="M347.6,23.5h-6.8l2.1-11.5h-5.1l0.9-4.4h17l-0.9,4.4h-5.1L347.6,23.5z M341.2,23.1h6.2l2.1-11.5h5.1l0.7-3.8
			h-16.4l-0.7,3.8h5.1L341.2,23.1z"/>
	</g>
</g>
<g>
	<g>
		<path class="st1" d="M197.7,24.1l-2.5-20.5c-0.1-0.8-0.8-1.4-1.6-1.3l-17,1.5l2.4,23.5l17.3-1.6C197.2,25.6,197.8,24.9,197.7,24.1
			z"/>
		<path class="st0" d="M178.7,27.7l-2.5-24.3l17.4-1.5c1-0.1,1.9,0.6,2,1.6l2.5,20.5c0.1,0.5-0.1,0.9-0.4,1.3
			c-0.3,0.4-0.8,0.7-1.4,0.7L178.7,27.7z M177,4.2l2.3,22.7l16.9-1.6c0.4,0,0.7-0.2,0.9-0.4c0.2-0.2,0.2-0.5,0.2-0.7v0l-2.5-20.5
			c-0.1-0.6-0.6-1-1.2-1L177,4.2z"/>
	</g>
	<g>
		<path class="st0" d="M159.8,5.4c-0.8,0.1-1.4,0.8-1.3,1.6l2.5,20.5c0.1,0.8,0.8,1.4,1.6,1.3l15.4-1.4l-2.4-23.5L159.8,5.4z"/>
		<path class="st0" d="M162.4,29.2c-0.4,0-0.8-0.1-1.1-0.4c-0.4-0.3-0.6-0.7-0.7-1.2L158.1,7c-0.1-1,0.6-1.9,1.6-2l0,0l16.2-1.5
			l2.5,24.3l-15.8,1.4C162.6,29.2,162.5,29.2,162.4,29.2z M159.8,5.8c-0.6,0.1-1,0.6-1,1.2l2.5,20.5c0,0.3,0.2,0.6,0.4,0.7
			c0.2,0.2,0.5,0.3,0.8,0.2l15-1.4l-2.3-22.7L159.8,5.8z"/>
	</g>
	<g>
		<g>
			<path class="st2" d="M173.2,4.3l5.7-0.4l0.4,3.5c6.7-0.5,12.6,0,12.9,3.5l-8.8,0.9c-0.2-0.9-1.2-1.6-3.8-1.3l0.3,3.1
				c6.4,0.2,13.1,0.4,13.4,3.8c0.4,3.7-4.9,5.6-12.2,6.4l0.3,3.1l-5.9,0.4l-0.4-3.1c-7.3,0.6-12.6-0.5-13.1-4l9.2-0.9
				c0.1,1.2,0.9,1.9,3.6,1.9l-0.4-3.5c-6-0.2-12-0.2-12.3-3.6c-0.4-3.5,4.8-5.2,11.3-6.3L173.2,4.3z M174,10.7
				c-1.4,0.1-3.8,0.9-3.7,1.8c0.1,1.1,2.3,1,4,1.2L174,10.7z M181,20.9c2.1-0.2,4.4-1,4.3-1.9c-0.1-1-2.1-1.4-4.6-1.4L181,20.9z"/>
			<path class="st0" d="M175.1,27.8l-0.4-3.1c-8,0.6-12.7-1-13.2-4.5l-0.1-0.5l10.3-1l0,0.5c0,0.5,0.1,1.3,2.5,1.4l-0.3-2.5l-0.5,0
				c-5.9-0.2-11.5-0.4-11.8-4c-0.5-4.1,5.7-5.8,11.3-6.8l-0.2-3.5l6.7-0.5l0.4,3.5c8.4-0.6,12.7,0.7,13,4l0,0.5l-9.8,1l-0.1-0.4
				c-0.2-0.9-1.6-1-2.7-0.9l0.2,2.1c6.5,0.2,13.1,0.5,13.4,4.3c0.4,3.6-3.7,5.9-12.2,6.9l0.3,3.1L175.1,27.8z M175.5,23.6l0.4,3.1
				l4.9-0.3l-0.3-3.1l0.5-0.1c5.6-0.6,12.1-2.1,11.7-5.8c-0.3-2.9-7-3.2-12.9-3.3l-0.5,0l-0.1-0.5L179,10l0.5-0.1
				c2.7-0.3,3.8,0.4,4.2,1.3l7.8-0.8c-0.7-2.2-4.8-3.1-12.3-2.5l-0.5,0l-0.4-3.5l-4.7,0.3l0.2,3.5l-0.5,0.1
				c-7.7,1.3-11.2,3.1-10.9,5.7c0.2,2.8,5.4,2.9,10.9,3.1l1.4,0l0.5,4.5h-0.6c-1.8,0-3.6-0.2-4-1.9l-8.1,0.8c0.9,2.5,5.3,3.6,12.4,3
				L175.5,23.6z M180.5,21.5l-0.4-4.4h0.6c3.3,0,5,0.6,5.1,1.9c0,0.2,0,0.5-0.3,0.9c-0.7,0.9-2.8,1.4-4.5,1.6L180.5,21.5z
				 M181.3,18.1l0.2,2.2c2.1-0.3,3.3-1,3.3-1.3C184.8,18.7,183.8,18.2,181.3,18.1z M174.9,14.3l-0.6-0.1c-0.3,0-0.7-0.1-1-0.1
				c-1.6-0.1-3.3-0.3-3.4-1.6c0-0.2,0-0.5,0.3-0.9c0.7-0.8,2.7-1.4,3.9-1.5l0.5,0L174.9,14.3z M173.5,11.3c-1.4,0.2-2.7,0.9-2.7,1.2
				c0,0.5,1.5,0.6,2.5,0.6c0.1,0,0.3,0,0.4,0L173.5,11.3z"/>
		</g>
	</g>
</g>
<g>
	<g>
		<path class="st0" d="M366.6,26.9h0.6l0.8,2.4l0.8-2.4h0.6v2.9H369v-1.7c0-0.1,0-0.2,0-0.3c0-0.1,0-0.3,0-0.4l-0.8,2.4h-0.4
			l-0.8-2.4v0.1c0,0.1,0,0.2,0,0.3c0,0.1,0,0.2,0,0.3v1.7h-0.4L366.6,26.9L366.6,26.9z"/>
	</g>
	<g>
		<path class="st0" d="M371.1,26.8c-0.4,0-0.8,0.1-1,0.4s-0.3,0.6-0.3,1c0,0.6,0.1,1,0.4,1.2c0.2,0.2,0.5,0.3,0.8,0.3
			c0.4,0,0.7-0.1,0.9-0.4c0.2-0.2,0.3-0.5,0.3-0.8h-0.4c0,0.2-0.1,0.3-0.2,0.5s-0.4,0.3-0.6,0.3c-0.3,0-0.5-0.1-0.7-0.3
			c-0.2-0.2-0.2-0.5-0.2-0.8c0-0.4,0.1-0.7,0.3-0.9c0.2-0.2,0.4-0.3,0.7-0.3c0.2,0,0.4,0.1,0.5,0.2s0.2,0.3,0.3,0.4h0.4
			c0-0.2-0.1-0.5-0.3-0.7C371.8,26.9,371.5,26.8,371.1,26.8z"/>
	</g>
</g>
</svg>
