<?xml version="1.0" encoding="utf-8"?>
<!-- Generator: Adobe Illustrator 22.0.0, SVG Export Plug-In . SVG Version: 6.00 Build 0)  -->
<svg version="1.1" id="Layer_1" xmlns="http://www.w3.org/2000/svg" xmlns:xlink="http://www.w3.org/1999/xlink" x="0px" y="0px"
	 viewBox="0 0 40.1 27.3" style="enable-background:new 0 0 40.1 27.3;" xml:space="preserve">
<style type="text/css">
	.st0{fill:#FFDF51;stroke:#003972;stroke-width:0.7727;}
	.st1{fill:#003972;stroke:#003972;stroke-width:0.7727;}
	.st2{fill:#FFFFFF;stroke:#003972;stroke-width:1.0303;}
</style>
<g>
	<path class="st0" d="M39.7,22.2L37.1,1.7c-0.1-0.8-0.8-1.4-1.6-1.3l-17,1.5L21,25.4l17.3-1.6C39.2,23.7,39.7,23,39.7,22.2z"/>
	<path class="st1" d="M1.7,3.5C0.9,3.6,0.3,4.3,0.4,5.1l2.5,20.5C3,26.4,3.7,27,4.5,26.9L20,25.5L17.5,2L1.7,3.5z"/>
	<g>
		<path class="st2" d="M15.1,2.4L20.8,2l0.4,3.5c6.7-0.5,12.6,0,12.9,3.5l-8.8,0.9c-0.2-0.9-1.2-1.6-3.8-1.3l0.3,3.1
			c6.4,0.2,13.1,0.4,13.4,3.8c0.4,3.7-4.9,5.6-12.2,6.4l0.3,3.1l-5.9,0.4l-0.4-3.1C10,23,4.7,21.8,4.2,18.3l9.2-0.9
			c0.1,1.2,0.9,1.9,3.6,1.9l-0.4-3.5c-6-0.2-12-0.2-12.3-3.6C3.9,8.6,9.1,7,15.5,5.9L15.1,2.4z M15.9,8.8c-1.4,0.1-3.8,0.9-3.7,1.8
			c0.1,1.1,2.3,1,4,1.2L15.9,8.8z M22.9,19c2.1-0.2,4.4-1,4.3-1.9c-0.1-1-2.1-1.4-4.6-1.4L22.9,19z"/>
	</g>
</g>
</svg>
