<?xml version="1.0" encoding="utf-8"?>
<!-- Generator: Adobe Illustrator 22.0.1, SVG Export Plug-In . SVG Version: 6.00 Build 0)  -->
<svg version="1.1" id="Layer_1" xmlns="http://www.w3.org/2000/svg" xmlns:xlink="http://www.w3.org/1999/xlink" x="0px" y="0px"
	 viewBox="0 0 44.4 44.4" style="enable-background:new 0 0 44.4 44.4;" xml:space="preserve">
<style type="text/css">
	.st0{fill:#FBE04A;}
</style>
<g>
	<g>
		<g>
			<path class="st0" d="M33,23.3L33,23.3l-22.9,0c-0.6,0-1-0.4-1-1c0-0.6,0.4-1,1-1l0,0l22.9,0c0.6,0,1,0.4,1,1
				C34,22.9,33.5,23.3,33,23.3z"/>
		</g>
		<g>
			<path class="st0" d="M21.5,34.8c-0.6,0-1-0.4-1-1l0-22.9c0-0.6,0.4-1,1-1s1,0.4,1,1l0,22.9C22.5,34.3,22.1,34.8,21.5,34.8z"/>
		</g>
	</g>
	<g>
		<path class="st0" d="M22.2,44.4c-5.7,0-11.4-2.2-15.7-6.5c-8.7-8.7-8.7-22.7,0-31.4c8.7-8.7,22.7-8.7,31.4,0
			c8.7,8.7,8.7,22.7,0,31.4l0,0C33.5,42.2,27.9,44.4,22.2,44.4z M22.2,2C17,2,11.8,4,7.9,7.9C0,15.8,0,28.6,7.9,36.5
			c7.9,7.9,20.7,7.9,28.6,0l0,0c7.9-7.9,7.9-20.7,0-28.6C32.5,4,27.3,2,22.2,2z"/>
	</g>
</g>
</svg>
